# xmcd
#
# Track frame offsets:
#	150
#	16362
#	24762
#	31487
#	38690
#	46031
#	64014
#	85110
#	96555
#	105167
#	113918
#	126131
#	136994
#	144059
#	155805
#	170682
#	181444
#
# Disc length: 2655 seconds
#
# Revision: 1
# Processed by: cddbd v1.4PL0 Copyright (c) Steve Scherf et al.
# Submitted via: audiograbber 1.80
#
DISCID=d40a5d11
DTITLE=Manu Chao - Esperanza
DYEAR=1900
DGENRE=
TTITLE0=Merry Blues
TTITLE1=Bix O
TTITLE2=Eldorado 1997
TTITLE3=Promiscuity
TTITLE4=La primavera
TTITLE5=Me gustas tu
TTITLE6=Denia
TTITLE7=Mi vida
TTITLE8=Trapped by love
TTITLE9=Le Rendes vous
TTITLE10=Mr Bobby
TTITLE11=Papito
TTITLE12=La chinita
TTITLE13=La Marea
TTITLE14=Homens
TTITLE15=La Vacaloca
TTITLE16=Infinita Tristeza
EXTD=
EXTT0=
EXTT1=
EXTT2=
EXTT3=
EXTT4=
EXTT5=
EXTT6=
EXTT7=
EXTT8=
EXTT9=
EXTT10=
EXTT11=
EXTT12=
EXTT13=
EXTT14=
EXTT15=
EXTT16=
PLAYORDER=
